<?xml version="1.0" encoding="UTF-8" standalone="no"?>
<svg
   width="400"
   height="400"
   viewBox="0 0 400 400"
   fill="none"
   version="1.1"
   id="svg26"
   xmlns="http://www.w3.org/2000/svg"
   xmlns:svg="http://www.w3.org/2000/svg">
  <path
     fill-rule="evenodd"
     clip-rule="evenodd"
     d="m 311.721,338.55975 c 0,0 42.045,-24.154 58.096,-33.354 3.789,-2.188 6.112,-6.201 6.112,-10.537 0,-19.656 -0.367,-73.759 -0.367,-73.759 l -135.137,77.406 z"
     fill="url(#paint0_linear_4371_42559)"
     id="path1"
     style="fill:url(#paint0_linear_4371_42559)" />
  <path
     fill-rule="evenodd"
     clip-rule="evenodd"
     d="m 24.003,227.27375 v 66.951 c 0,4.336 2.32222,8.348 6.11111,10.537 17.11109,9.848 64.32959,36.555 64.32959,36.555 v -155.258 z"
     fill="url(#paint1_linear_4371_42559)"
     id="path2"
     style="fill:url(#paint1_linear_4371_42559)" />
  <path
     fill-rule="evenodd"
     clip-rule="evenodd"
     d="m 264.741,34.52905 c 0,0 -41.841,-23.8298 -57.811,-32.90776 -3.789,-2.147926 -8.434,-2.147926 -12.182,0.04052 -17.111,9.80754 -64.37,37.36574 -64.37,37.36574 l 134.974,76.6772 z"
     fill="url(#paint2_linear_4371_42559)"
     id="path3"
     style="fill:url(#paint2_linear_4371_42559)" />
  <path
     fill-rule="evenodd"
     clip-rule="evenodd"
     d="m 200.818,78.82445 v 31.5703 c 0,10.051 -5.378,19.291 -14.097,24.357 l -150.0476,86.687 c -7.33336,4.012 -12.344474,11.631 -12.6704,20.425 v -132.847 c 0,-5.795 3.0963,-11.1447 8.14815,-14.0221 C 63.2363,77.12235 194.747,1.62082 194.747,1.62082 c 1.874,-1.094221 3.993,-1.62107 6.071,-1.62107 z"
     fill="url(#paint3_linear_4371_42559)"
     id="path4"
     style="fill:url(#paint3_linear_4371_42559)" />
  <path
     fill-rule="evenodd"
     clip-rule="evenodd"
     d="m 121.5384,244.57975 c 8.7186,-5.026 19.5146,-5.066 28.2736,-0.081 l 150.13,85.795 c 3.789,2.391 8.27,3.769 13.078,3.769 4.807,0 8.963,-1.297 12.67,-3.526 0,0 -89.222,51.307 -116.966,67.275 -5.052,2.918 -11.245,2.918 -16.297,0 -30.066,-17.265 -162.63673,-93.455 -162.63673,-93.455 -1.83334,-1.095 -3.3,-2.594 -4.31852,-4.377 l 17.11115,-9.889 c 0,0 11.6925,-6.727 18.3333,-10.577 z"
     fill="url(#paint4_linear_4371_42559)"
     id="path5"
     style="fill:url(#paint4_linear_4371_42559)" />
  <path
     fill-rule="evenodd"
     clip-rule="evenodd"
     d="m 375.956,283.81075 v 10.821 c 0,2.148 -0.57,4.255 -1.63,6.038 l -68.648,-39.635 c -9.778,-5.633 -19.596,-11.307 -28.07,-16.211 -8.719,-5.025 -14.056,-14.265 -14.096,-24.235 l -0.449,-172.4818 v -0.3648 c 0,-9.078 -5.011,-17.0213 -12.466,-21.1955 0,0 89.466,51.5096 117.252,67.5177 5.051,2.8774 8.148,8.2274 8.148,14.0224 z"
     fill="url(#paint5_linear_4371_42559)"
     id="path6"
     style="fill:url(#paint5_linear_4371_42559)" />
  <defs
     id="defs26">
    <linearGradient
       id="paint0_linear_4371_42559"
       x1="326.38101"
       y1="278.207"
       x2="253.082"
       y2="294.957"
       gradientUnits="userSpaceOnUse"
       gradientTransform="translate(24.003,-2.5e-4)">
      <stop
         stop-color="#003E89"
         id="stop15" />
      <stop
         offset="1"
         stop-color="#1368BC"
         id="stop16" />
    </linearGradient>
    <linearGradient
       id="paint1_linear_4371_42559"
       x1="12.6133"
       y1="228.048"
       x2="73.646202"
       y2="269.81799"
       gradientUnits="userSpaceOnUse"
       gradientTransform="translate(24.003,-2.5e-4)">
      <stop
         stop-color="#003E89"
         id="stop17" />
      <stop
         offset="1"
         stop-color="#1368BC"
         id="stop18" />
    </linearGradient>
    <linearGradient
       id="paint2_linear_4371_42559"
       x1="151.133"
       y1="45.686401"
       x2="243.81"
       y2="65.1399"
       gradientUnits="userSpaceOnUse"
       gradientTransform="translate(24.003,-2.5e-4)">
      <stop
         stop-color="#1368BC"
         id="stop19" />
      <stop
         offset="1"
         stop-color="#003E89"
         id="stop20" />
    </linearGradient>
    <linearGradient
       id="paint3_linear_4371_42559"
       x1="150.11301"
       y1="144.83099"
       x2="13.1667"
       y2="91.2248"
       gradientUnits="userSpaceOnUse"
       gradientTransform="translate(24.003,-2.5e-4)">
      <stop
         stop-color="#57BFFF"
         id="stop21" />
      <stop
         offset="1"
         stop-color="#0B55D9"
         id="stop22" />
    </linearGradient>
    <linearGradient
       id="paint4_linear_4371_42559"
       x1="166.54201"
       y1="280.38101"
       x2="129.849"
       y2="366.798"
       gradientUnits="userSpaceOnUse"
       gradientTransform="translate(24.003,-2.5e-4)">
      <stop
         stop-color="#5EB9FC"
         id="stop23" />
      <stop
         offset="1"
         stop-color="#0B55D9"
         id="stop24" />
    </linearGradient>
    <linearGradient
       id="paint5_linear_4371_42559"
       x1="351.39899"
       y1="119.641"
       x2="238.571"
       y2="199.28799"
       gradientUnits="userSpaceOnUse"
       gradientTransform="translate(24.003,-2.5e-4)">
      <stop
         stop-color="#0B55D9"
         id="stop25" />
      <stop
         offset="1"
         stop-color="#57BFFF"
         id="stop26" />
    </linearGradient>
  </defs>
</svg>
