<?xml version="1.0" encoding="UTF-8" standalone="no"?>
<svg
   width="260"
   height="430"
   viewBox="0 0 260 430"
   fill="none"
   version="1.1"
   id="svg28"
   xmlns="http://www.w3.org/2000/svg"
   xmlns:svg="http://www.w3.org/2000/svg">
  <path
     fill-rule="evenodd"
     clip-rule="evenodd"
     d="m 68.246485,284.38562 v 72.427 l -45.1135,25.686 c -1.634,0.898 -3.5055,1.409 -5.4941,1.409 -6.176159,0 -11.2256533,-4.926 -11.5250348,-11.108 l -0.020793,-0.016 -5.41e-4,-44.818 h 0.00108 l 6.821e-4,-1.322 c 0,-4.651 2.6871454,-8.671 6.5729857,-10.553 z"
     fill="url(#paint0_linear_4814_6)"
     id="path1"
     style="fill:url(#paint0_linear_4814_6)" />
  <path
     fill-rule="evenodd"
     clip-rule="evenodd"
     d="m 22.943885,46.811814 c 0.2132,0.1141 45.3024,26.1005 45.3024,26.1005 0,0 -3e-4,55.581306 -3e-4,66.081306 0,1.053 -0.5591,2.026 -1.4685,2.557 -7.7016,4.492 -43.5609,25.411 -56.234049,32.803 -0.9153102,0.534 -2.0463202,0.538 -2.9653502,0.01 -0.9188901,-0.527 -1.4855695,-1.506 -1.4855695,-2.566 0,-22.968 0,-114.883906 0,-114.883906 l 0.018817,-0.0229 c 0.1285683,-6.3231 5.2269427,-11.4161 11.4883517,-11.4161 1.4493,0 2.8365,0.2729 4.114,0.7709 z"
     fill="url(#paint1_linear_4814_6)"
     id="path2"
     style="fill:url(#paint1_linear_4814_6)" />
  <path
     fill-rule="evenodd"
     clip-rule="evenodd"
     d="m 6.0935983,326.71162 c 0,0.147 -7.528e-4,-49.053 -0.00108,-69.308 -1.412e-4,-5.292 2.8252595,-10.181 7.4101597,-12.823 23.144909,-13.336 93.637802,-53.956 112.049802,-64.565 0.915,-0.528 2.043,-0.527 2.958,0.002 0.915,0.529 1.479,1.505 1.479,2.562 0,14.606 0,55.987 0,64.933 0,1.063 -0.57,2.045 -1.493,2.571 -13.62,7.77 -115.829892,66.075 -115.829892,66.075 -3.8858502,1.882 -6.5729877,5.902 -6.5729877,10.553 z"
     fill="url(#paint2_linear_4814_6)"
     id="path3"
     style="fill:url(#paint2_linear_4814_6)" />
  <path
     fill-rule="evenodd"
     clip-rule="evenodd"
     d="m 23.285185,382.35062 0.0102,0.006 c 0,0 129.149095,-74.303 161.780095,-93.077 4.589,-2.64 7.419,-7.532 7.419,-12.827 0,-25.106 0,-98.363 0,-123.469 0,-5.295 -2.83,-10.187 -7.419,-12.827 -32.638,-18.778 -161.837995,-93.110206 -161.837995,-93.110206 l -0.0089,0.0055 c -1.6901,-0.9836 -3.6487,-1.5462 -5.7361,-1.5462 -1.1834,0 -3.250559,0.5393 -4.325589,0.8752 0,0 40.935389,-23.5475 58.048289,-33.391449 4.5694,-2.628522 10.1921,-2.627675 14.7608,0.0018 28.587495,16.453959 131.864495,75.897059 160.515495,92.387665 4.588,2.6408 7.416,7.5317 7.416,12.8257 0,34.133 0,160.353 0,194.499 0,5.298 -2.832,10.192 -7.426,12.832 -28.515,16.384 -130.812,75.163 -159.206795,91.479 -4.5561,2.617 -10.1587,2.623 -14.72,0.014 -17.4646,-9.99 -59.941199,-34.286 -59.941199,-34.286 1.50448,0.729 3.18862,1.137 4.966099,1.137 2.0749,0 4.0224,-0.556 5.7056,-1.529 z"
     fill="url(#paint3_linear_4814_6)"
     id="path4"
     style="fill:url(#paint3_linear_4814_6)" />
  <defs
     id="defs28">
    <linearGradient
       id="paint0_linear_4814_6"
       x1="50.508701"
       y1="352.51801"
       x2="18.965099"
       y2="297.884"
       gradientUnits="userSpaceOnUse"
       gradientTransform="translate(6.0924857,11.018615)">
      <stop
         stop-color="#D9C185"
         id="stop18" />
      <stop
         offset="1"
         stop-color="#8E783E"
         id="stop19" />
    </linearGradient>
    <linearGradient
       id="paint1_linear_4814_6"
       x1="-3.80672"
       y1="160.88901"
       x2="47.7981"
       y2="50.224098"
       gradientUnits="userSpaceOnUse"
       gradientTransform="translate(6.0924857,11.018615)">
      <stop
         offset="0.181679"
         stop-color="#D9C185"
         id="stop20" />
      <stop
         offset="1"
         stop-color="#907C44"
         id="stop21" />
    </linearGradient>
    <linearGradient
       id="paint2_linear_4814_6"
       x1="8.8556299"
       y1="321.44299"
       x2="112.178"
       y2="162.34399"
       gradientUnits="userSpaceOnUse"
       gradientTransform="translate(6.0924857,11.018615)">
      <stop
         stop-color="#D9C185"
         id="stop22" />
      <stop
         offset="0.278147"
         stop-color="#C8B176"
         id="stop23" />
      <stop
         offset="1"
         stop-color="#9F8951"
         id="stop24" />
    </linearGradient>
    <linearGradient
       id="paint3_linear_4814_6"
       x1="127.168"
       y1="-1.45015e-05"
       x2="127.168"
       y2="407.96301"
       gradientUnits="userSpaceOnUse"
       gradientTransform="translate(6.0924857,11.018615)">
      <stop
         stop-color="#D9C185"
         id="stop25" />
      <stop
         offset="0.225264"
         stop-color="#CEB67A"
         id="stop26" />
      <stop
         offset="0.622149"
         stop-color="#B0995E"
         id="stop27" />
      <stop
         offset="1"
         stop-color="#8E783E"
         id="stop28" />
    </linearGradient>
  </defs>
</svg>
