<?xml version="1.0" encoding="UTF-8" standalone="no"?>
<svg
   version="1.2"
   id="Ebene_1"
   x="0px"
   y="0px"
   width="210"
   height="210"
   viewBox="0 0 209.99999 209.99999"
   xml:space="preserve"
   xmlns="http://www.w3.org/2000/svg"
   xmlns:svg="http://www.w3.org/2000/svg"><defs
   id="defs6" />
<g
   id="g6"
   transform="translate(-0.35,20.716072)">
	<path
   fill="#ffbb00"
   d="m 108.1,110.8 c 0,0 -23.7,11.6 -16,33.2 8.9,25.1 50.2,22.1 74.4,11.8 20.6,-8.7 3.4,-15.6 3.4,-15.6 l -21.3,-12 -32.5,-20.1 z"
   id="path1" />
	<path
   fill="#3a3a3a"
   d="m 164.3,130 c -15.2,-6.4 -26,-15.9 -36.9,-20 5.7,-2.5 11,-6.1 14.3,-9.2 3.6,-3.4 4.7,-7.7 4.5,-11.8 11.3,7.7 24.7,8.2 31.5,8.6 7.1,0.4 13.8,1.8 15.2,5.2 0,0 2.2,-38.4 -76.9,-63.9 0,0 23.6,10.7 31,19.3 0,0 -8.4,-0.5 -11.9,4.9 -1.8,2.7 -2.2,6.9 -0.6,11.5 -1.3,-0.2 -2.8,-0.4 -4.4,-0.5 L 4.5,4.7 17.7,33.1 5.3,28.8 9,35.8 c 0.1,0.1 5.2,10 17.3,31.1 9.5,16.6 26.5,24.9 49,23.9 0.8,0 1.8,-0.1 2.8,-0.2 5.7,-0.4 14.5,-1.2 23,-2 -0.6,3.1 -0.5,6.8 0.3,11.3 1,5.2 3.1,8.5 5.8,10.5 -6.5,3.2 -12.4,9.1 -15.3,16.3 v 0 c -0.1,0.2 -0.2,0.4 -0.2,0.6 v 0 c -1.9,4.6 -2.4,10.2 -0.1,16.7 v 0.1 c 0.5,1.3 1,2.6 1.8,4 0.7,1.3 1.6,2.6 2.7,3.7 14,16.6 48,13.9 69.4,4.9 0.3,-0.1 0.6,-0.2 0.9,-0.4 1.7,-0.7 3.4,-1.5 5.1,-2.3 0.3,-0.2 0.7,-0.3 1,-0.5 1.8,-0.9 3.6,-1.8 5.4,-2.9 21.3,-12.4 28.3,-26.9 28.3,-26.9 0,0 -21.3,15 -41.9,6.3 z m 5.4,-57 c 6,2.6 15.3,17.6 15.3,17.6 -7.7,-1.2 -23.1,-6.2 -24.7,-12 -1.7,-5.8 3.4,-8.2 9.4,-5.6 z M 74.9,84.5 C 66.8,84.9 59.5,83.9 53.1,81.7 43.8,78.4 36.6,72.4 31.6,63.8 25.4,53 21.1,45.1 18.3,40 l 11.3,3.9 -11.3,-24.3 99.1,55 c -2.7,0.4 -5.4,1.2 -7.8,2.4 l -63.5,-25.6 54.5,31 c -9.9,0.9 -20.5,1.8 -25.7,2.1 z M 93.3,141 c -1.1,-4.2 -0.7,-8.4 0.3,-12.1 5.8,3.9 14.5,6 26.7,1.4 0,0 -8.6,10.7 -27,10.7 z m 29,20.2 c -4,-0.5 -8.1,-1.5 -12,-3.1 -2.1,-0.9 -3.9,-1.8 -5.6,-2.8 7.9,-1.8 18,-6.2 27.6,-17.1 0,0 -1.1,11.8 -10,23 z m 27.4,-2.2 c -2.1,0.6 -4.4,1.1 -6.7,1.5 3.6,-2.8 6.9,-7.1 7,-13 -0.1,0 1.5,5 -0.3,11.5 z m 29.4,-13.4 c -1.1,-2.9 -1.6,-8.7 -1.6,-8.7 6.6,0.6 14.6,-2.1 14.6,-2.1 -5.3,6.5 -13,10.8 -13,10.8 z"
   id="path2" />
	<path
   fill="#ffbb00"
   d="m 129.9,78.1 c 0,0 -23,-5.7 -26.2,12 -1.3,7.3 1.4,14.1 5.2,16.8 1.9,-0.8 4.4,-2 9.4,-1.9 -1.1,-0.5 -2.7,-2.6 -4,-5.4 1.5,0.3 3.3,0.5 5.4,0.2 0,0 -5.5,-1.8 -7.4,-8.6 0,-0.1 0,-0.1 0,-0.2 0.8,0.5 1.8,0.9 3.1,1.1 0,0 -4.4,-3.7 -0.8,-8.6 2.4,-3.3 7.1,-5.5 15.3,-5.4 z"
   id="path3" />
	<path
   fill="#ffffff"
   d="M 74.9,84.5 C 66.8,84.9 59.5,83.9 53.1,81.7 43.8,78.4 36.6,72.4 31.6,63.8 25.4,53 21.1,45.1 18.3,40 l 11.3,3.9 -11.3,-24.3 99.1,55 c -2.7,0.4 -5.4,1.2 -7.8,2.4 l -63.5,-25.6 54.5,31 c -9.9,0.9 -20.5,1.8 -25.7,2.1 z"
   id="path4" />
	<path
   fill="#ffffff"
   d="m 169.7,73 c 6,2.6 15.3,17.6 15.3,17.6 -7.7,-1.2 -23.1,-6.2 -24.7,-12 -1.7,-5.8 3.4,-8.2 9.4,-5.6 z"
   id="path5" />
	<path
   fill="#ffffff"
   d="m 179.1,145.6 c -1.1,-2.9 -1.6,-8.7 -1.6,-8.7 6.6,0.6 14.6,-2.1 14.6,-2.1 -5.3,6.5 -13,10.8 -13,10.8 z"
   id="path6" />
</g>
</svg>
