<?xml version="1.0" encoding="UTF-8" standalone="no"?>
<!DOCTYPE svg PUBLIC "-//W3C//DTD SVG 1.1//EN" "http://www.w3.org/Graphics/SVG/1.1/DTD/svg11.dtd">
<svg width="100%" height="100%" viewBox="0 0 400 400" version="1.1" xmlns="http://www.w3.org/2000/svg" xmlns:xlink="http://www.w3.org/1999/xlink" xml:space="preserve" xmlns:serif="http://www.serif.com/" style="fill-rule:evenodd;clip-rule:evenodd;stroke-linejoin:round;stroke-miterlimit:2;">
    <g id="g39192" transform="matrix(2.51552,0,0,2.51552,-1581.43,2386.26)">
        <g>
            <path id="path5326-7-0-7" d="M652.667,-869.882L650.072,-918.73L679.277,-917.169L722.229,-943.993L737.01,-916.731L780.662,-894.213L764.109,-868.047L765.487,-819.92L734.628,-820.198L694.704,-795.038L680.358,-820.377L635.645,-843.507L652.667,-869.882Z" style="fill:rgb(20,23,28);fill-rule:nonzero;"/>
            <path id="path43052-8-2-1-8-2" d="M738.454,-921.534L783.619,-895.458L753.34,-843.014L765.973,-890.162L738.454,-921.534Z" style="fill:rgb(59,206,174);fill-rule:nonzero;"/>
            <path id="path43054-8-2-7-8-4" d="M768.717,-869.097L768.717,-816.946L708.159,-816.946L755.308,-829.579L768.717,-869.097Z" style="fill:rgb(194,176,53);fill-rule:nonzero;"/>
            <path id="path43056-6-6-1-0-7" d="M738.437,-816.671L693.272,-790.595L662.993,-843.039L697.508,-808.524L738.437,-816.671Z" style="fill:rgb(181,77,101);fill-rule:nonzero;"/>
            <path id="path43058-0-8-3-2-4" d="M677.894,-816.681L632.729,-842.757L663.008,-895.201L650.375,-848.053L677.894,-816.681Z" style="fill:rgb(168,57,199);fill-rule:nonzero;"/>
            <path id="path43050-7-4-6-1-5" d="M677.912,-921.544L723.076,-947.62L753.355,-895.176L718.84,-929.691L677.912,-921.544Z" style="fill:rgb(53,154,200);fill-rule:nonzero;"/>
            <path id="path2282-9-7-3-9-1-2-5" d="M647.631,-869.118L647.631,-921.269L708.189,-921.269L661.04,-908.636L647.631,-869.118Z" style="fill:rgb(59,86,200);fill-rule:nonzero;"/>
            <g id="text46893-8-8-7-8-3-4-5-5-8-7-0-8-4-8-3-7-9-4-5-7-9-3-5" transform="matrix(0.904181,0,0,1.12689,-8.92382,5.69989)">
                <path id="path3019" d="M835.129,-741.464L820.578,-741.464L811.503,-756.015L802.524,-741.464L788.291,-741.464L803.734,-765.28L789.215,-788.015L803.161,-788.015L811.567,-773.623L819.654,-788.015L834.014,-788.015L819.272,-764.293L835.129,-741.464Z" style="fill:white;fill-rule:nonzero;"/>
            </g>
            <g id="text46893-8-8-7-8-3-4-5-5-8-5-0-2-2-0-4-9-1-2-9-6-0-9" transform="matrix(0.90452,0,0,1.11074,-1.60711,2.01207)">
                <path id="path3016" d="M767.027,-748.906L754.263,-748.906L754.263,-785.713L742.726,-785.713L742.726,-796.15L778.531,-796.15L778.531,-785.713L767.027,-785.713L767.027,-748.906Z" style="fill:white;fill-rule:nonzero;"/>
            </g>
            <g id="text43103-3-6-3-0-9-7-7-6-1-9-1-0-7-4-8-0-2-6-6-6-2-7" transform="matrix(0.912003,0,0,1.09649,4.54747e-13,-5.68434e-13)">
                <path id="path2958" d="M750.224,-819.066L741.686,-819.066L741.686,-822.461L752.499,-822.461L752.499,-825.89L740.041,-825.89C738.338,-825.89 737.043,-825.61 736.157,-825.05C735.27,-824.491 734.827,-823.639 734.827,-822.496L734.827,-810.458C734.827,-809.315 735.27,-808.463 736.157,-807.903C737.043,-807.343 738.338,-807.063 740.041,-807.063L752.499,-807.063L752.499,-810.493L741.686,-810.493L741.686,-815.602L750.224,-815.602L750.224,-819.066Z" style="fill:rgb(255,254,250);fill-rule:nonzero;"/>
                <path id="path2960" d="M767.687,-822.461L755.649,-822.461L755.649,-825.89L769.331,-825.89C771.034,-825.89 772.329,-825.61 773.216,-825.05C774.102,-824.491 774.545,-823.639 774.545,-822.496L774.545,-810.458C774.545,-809.315 774.102,-808.463 773.216,-807.903C772.329,-807.343 771.034,-807.063 769.331,-807.063L755.649,-807.063L755.649,-820.746L762.507,-820.746L762.507,-810.493L767.687,-810.493L767.687,-822.461Z" style="fill:rgb(255,254,250);fill-rule:nonzero;"/>
                <path id="path2962" d="M789.733,-810.493L784.554,-810.493L784.554,-822.461L796.592,-822.461L796.592,-825.89L782.909,-825.89C781.206,-825.89 779.911,-825.61 779.025,-825.05C778.138,-824.491 777.695,-823.639 777.695,-822.496L777.695,-810.458C777.695,-809.315 778.138,-808.463 779.025,-807.903C779.911,-807.343 781.206,-807.063 782.909,-807.063L791.378,-807.063C793.081,-807.063 794.376,-807.343 795.262,-807.903C796.149,-808.463 796.592,-809.315 796.592,-810.458L796.592,-819.066L789.733,-819.066L789.733,-810.493Z" style="fill:rgb(255,254,250);fill-rule:nonzero;"/>
                <path id="path2964" d="M815.139,-819.066L806.6,-819.066L806.6,-822.461L817.413,-822.461L817.413,-825.89L804.955,-825.89C803.252,-825.89 801.958,-825.61 801.071,-825.05C800.185,-824.491 799.741,-823.639 799.741,-822.496L799.741,-810.458C799.741,-809.315 800.185,-808.463 801.071,-807.903C801.958,-807.343 803.252,-807.063 804.955,-807.063L817.413,-807.063L817.413,-810.493L806.6,-810.493L806.6,-815.602L815.139,-815.602L815.139,-819.066Z" style="fill:rgb(255,254,250);fill-rule:nonzero;"/>
            </g>
        </g>
    </g>
</svg>
