<?xml version="1.0" encoding="UTF-8" standalone="no"?>
<!-- Created with Inkscape (http://www.inkscape.org/) -->

<svg
   version="1.1"
   id="svg1"
   width="400"
   height="100"
   viewBox="0 0 400 100"
   xmlns="http://www.w3.org/2000/svg"
   xmlns:svg="http://www.w3.org/2000/svg">
  <defs
     id="defs1" />
  <g
     id="g1"
     transform="translate(-10.842715,-67.798013)">
    <path
       style="fill:#58585a;fill-opacity:1"
       d="m 32.968922,165.66525 c -7.632979,-4.024 -11.5,-10.37849 -11.5,-18.8974 0,-3.10135 0.72124,-7.15861 1.602792,-9.01634 4.023371,-8.47863 14.743152,-13.75492 23.277019,-11.45699 2.266104,0.6102 4.120189,1.45211 4.120189,1.87091 0,1.99613 -2.886899,3.16145 -7.831966,3.16145 -9.331719,0 -16.168034,6.58515 -16.168034,15.57401 0,14.14823 19.190965,20.89774 27.908313,9.81543 2.901738,-3.68897 4.260235,-9.31495 3.168475,-13.12169 -0.733105,-2.55619 -0.538295,-3.4451 1.074973,-4.90509 1.675842,-1.51661 2.103337,-1.56793 2.860172,-0.34335 1.890845,3.05945 2.12976,8.98146 0.57773,14.32026 -1.652359,5.68392 -7.050557,11.74457 -12.20704,13.70506 -3.864899,1.46943 -13.521943,1.06544 -16.882623,-0.70626 z m 56,0 c -7.606941,-4.01027 -11.442858,-10.49276 -11.478038,-19.39724 -0.02587,-6.54937 1.862568,-10.11177 4.291633,-8.09583 1.163807,0.96588 1.39955,2.53394 0.984921,6.55131 -0.992879,9.62007 4.415238,16.48512 13.688501,17.37617 9.595121,0.92197 17.016341,-5.73382 17.009251,-15.25491 -0.007,-9.34904 -6.19579,-15.50724 -15.59128,-15.51413 -3.780673,-0.003 -5.5509,-0.50749 -6.86225,-1.95651 -1.709139,-1.88858 -1.67314,-1.97808 1.095012,-2.72259 5.48614,-1.47553 12.141758,-0.6439 16.828548,2.10274 14.34903,8.40909 13.03598,30.78001 -2.18418,37.21262 -4.3265,1.82855 -14.054464,1.66354 -17.782118,-0.30163 z m -50.928571,-14.9098 c -3.340716,-3.34071 -0.897353,-9.42857 3.78416,-9.42857 1.356004,0 4.307629,-2.12124 7.623371,-5.47869 5.123267,-5.18771 5.50835,-5.39027 7.250303,-3.81383 1.764142,1.59653 1.612463,1.89447 -3.6948,7.2577 -3.261613,3.296 -5.534463,6.47559 -5.534463,7.74239 0,2.82983 -2.559188,5.29243 -5.5,5.29243 -1.296429,0 -3.064286,-0.70714 -3.928571,-1.57143 z m 56.083559,-0.25731 c -0.910244,-1.0058 -1.654988,-2.71022 -1.654988,-3.78759 0,-1.07737 -2.25,-4.17502 -5,-6.88367 -5.365287,-5.28461 -5.869243,-6.5337 -3.4471,-8.5439 1.324652,-1.09936 2.394534,-0.45594 7.278998,4.37756 3.163455,3.13044 6.630571,5.66634 7.747099,5.66634 2.915601,0 4.421001,1.92893 4.421001,5.66482 0,5.05326 -5.931129,7.27874 -9.34501,3.50644 z M 35.584398,108.82577 c -4.951484,-1.54413 -10.288944,-6.23733 -12.576862,-11.058759 -2.018979,-4.254683 -1.977386,-13.671025 0.07836,-17.73979 3.882783,-7.684867 10.327288,-11.70034 18.778089,-11.70034 6.894089,0 9.483667,0.992204 14.560652,5.578956 6.23787,5.63554 8.776035,17.382948 5.056219,23.401736 -0.756835,1.224584 -1.18433,1.173266 -2.860172,-0.34335 -1.613268,-1.459988 -1.808078,-2.3489 -1.074973,-4.905086 1.09176,-3.806746 -0.266737,-9.432726 -3.168475,-13.121688 -8.717348,-11.082312 -27.908313,-4.3328 -27.908313,9.815425 0,8.988864 6.836315,15.574006 16.168034,15.574006 8.013406,0 10.601524,3.13685 4.081966,4.94742 -4.660037,1.29416 -5.677796,1.25316 -11.134525,-0.44853 z m 60.384524,1.03218 c -0.55,-0.19587 -2.288012,-0.64174 -3.86225,-0.99082 -2.769275,-0.61408 -2.804844,-0.69813 -1.095012,-2.58747 1.31135,-1.44903 3.081577,-1.95374 6.86225,-1.95651 9.39549,-0.007 15.58431,-6.1651 15.59128,-15.514134 0.007,-9.52109 -7.41413,-16.176879 -17.009251,-15.254909 -9.273263,0.891043 -14.68138,7.756102 -13.688501,17.37617 0.414629,4.017366 0.178886,5.585432 -0.984921,6.551306 -2.384659,1.979091 -4.313595,-1.543739 -4.313595,-7.87795 0,-12.741219 8.220828,-21.276752 20.492281,-21.276752 12.541357,0 20.883407,8.158118 20.962197,20.5 0.0492,7.702283 -3.55456,14.322869 -9.73106,17.877389 -3.9611,2.27959 -10.978443,3.95316 -13.223418,3.15368 z M 49.447882,99.805577 c -3.315742,-3.357449 -6.267367,-5.478696 -7.623371,-5.478696 -4.681513,0 -7.124876,-6.087856 -3.78416,-9.428571 3.315937,-3.315938 9.428571,-0.903576 9.428571,3.721002 0,1.266804 2.27285,4.44639 5.534463,7.742395 5.307263,5.363233 5.458942,5.661173 3.6948,7.257693 -1.741953,1.57645 -2.127036,1.37389 -7.250303,-3.813823 z m 34.22104,4.321303 c -1.972792,-1.97279 -1.438108,-3.14065 3.8,-8.299999 2.897435,-2.853867 5,-5.821604 5,-7.057421 0,-2.502107 2.914486,-5.442579 5.394482,-5.442579 3.534276,0 5.605516,1.971353 5.605516,5.335184 0,3.760512 -1.50741,5.664816 -4.484158,5.664816 -1.201203,0 -4.385299,2.330083 -7.51584,5.5 -2.987424,3.024999 -5.694552,5.499999 -6.01584,5.499999 -0.321288,0 -1.12416,-0.54 -1.78416,-1.2 z"
       id="path1" />
    <path
       d="m 144.79338,118.15304 0.25999,-46.250001 h 3 3 l 0.25999,46.250001 0.25998,46.25 h -3.51997 -3.51997 z m 25.42666,45.58334 c -0.36667,-0.36667 -0.66667,-21.0581 -0.66667,-45.98095 V 72.441139 l 2.59098,-0.65029 c 1.84522,-0.46312 3.11659,-0.10881 4.41707,1.23095 2.27827,2.34706 40.01394,56.301831 48.95727,69.999481 l 6.6063,10.11825 -0.40712,-40.31875 -0.40712,-40.318741 2.56447,-0.64364 c 1.41047,-0.35401 3.04006,-0.34972 3.62131,0.01 0.71764,0.44352 1.05684,15.3984 1.05684,46.594141 v 45.94098 l -3.25,-0.0486 c -3.12274,-0.0467 -4.15064,-1.3408 -26.25,-33.04741 -12.65,-18.14934 -25.1375,-36.443081 -27.75,-40.652761 l -4.75,-7.65396 v 40.701381 40.70138 h -2.83333 c -1.55834,0 -3.13334,-0.3 -3.5,-0.66666 z m 82.02531,-0.027 c -0.27265,-0.4435 7.69567,-21.28137 17.70737,-46.30637 l 18.20309,-45.500001 h 3.3676 3.36761 l 18.33117,45.429261 c 10.08215,24.98609 18.33118,45.79859 18.33118,46.25 0,0.45141 -1.52627,0.82074 -3.39171,0.82074 h -3.39172 l -5.91653,-14.75 -5.91653,-14.75 h -21.32051 -21.3205 l -5.70191,14.5 c -5.5103,14.01273 -5.80526,14.5103 -8.7774,14.80636 -1.69152,0.1685 -3.29857,-0.0565 -3.57121,-0.5 z m 49.69188,-56.55637 c -4.62089,-11.687501 -8.87667,-22.347401 -9.45727,-23.688671 -0.94726,-2.18829 -1.82889,-0.49421 -8.5869,16.5 -4.14219,10.416271 -8.38158,21.076171 -9.42088,23.688671 l -1.88963,4.75 h 18.87816 18.87816 z m 39.61614,12.08911 c -9.625,-24.886891 -17.5,-45.719181 -17.5,-46.294001 0,-0.57481 1.20932,-1.18478 2.68738,-1.35549 1.93044,-0.22295 3.09797,0.34038 4.14506,2 1.11548,1.768 28.46626,72.321401 30.93936,79.810381 0.388,1.17493 0.65766,1.06658 1.2443,-0.5 11.36321,-30.34443 31.03329,-80.192471 31.86628,-80.755731 1.74728,-1.1815 5.06891,-0.40377 5.36314,1.25573 0.14628,0.825 -7.51112,21.525 -17.01642,46.000001 l -17.28238,44.5 -3.47336,0.294 -3.47336,0.294 z"
       style="fill:#58585a;fill-opacity:1"
       id="path1-8" />
    <path
       d="m 65.688787,136.59143 c -5.27138,-6.16699 -10.221761,-16.00874 -10.787729,-21.44685 -0.958263,-9.20749 6.176222,-16.817819 15.766276,-16.817819 12.883216,0 18.654342,13.409499 11.612528,26.982289 -2.767907,5.33502 -10.676406,16.01771 -11.858065,16.01771 -0.376951,0 -2.506806,-2.1309 -4.73301,-4.73533 z m 8.820511,-15.72768 c 1.556037,-0.80466 3.10869,-2.19146 3.45034,-3.08179 0.798491,-2.08083 0.798491,-6.82956 0,-8.91039 -0.758592,-1.97686 -5.508271,-4.54481 -8.406082,-4.54481 -3.298896,0 -7.972737,5.27606 -7.972737,9 0,2.1525 0.92808,4.08193 2.923077,6.07693 3.257597,3.25759 5.809285,3.62995 10.005402,1.46006 z"
       style="fill:#37a8db;fill-opacity:1"
       id="path1-1" />
  </g>
</svg>
