<?xml version="1.0" encoding="UTF-8" standalone="no"?>
<!-- Created with Inkscape (http://www.inkscape.org/) -->

<svg
   version="1.1"
   id="svg1"
   width="101"
   height="50"
   viewBox="0 0 101 50"
   xmlns="http://www.w3.org/2000/svg"
   xmlns:svg="http://www.w3.org/2000/svg">
  <defs
     id="defs1" />
  <g
     id="g1"
     transform="translate(-6.6524691,-31.179216)">
    <path
       style="fill:#8e0a26;fill-opacity:1"
       d="m 9.9350889,80.004576 -3.133531,-0.04782 1.210683,-0.354736 C 14.519607,77.695329 20.811166,71.389186 25.402212,62.17174 c 1.222057,-2.453523 1.864421,-4.0144 2.320836,-5.639386 0.984233,-3.504187 2.737262,-7.833903 4.296944,-10.612798 3.182144,-5.669649 6.913832,-9.516977 11.386906,-11.739772 2.054025,-1.020702 3.923742,-1.59078 5.681738,-1.732367 l 1.123875,-0.09052 -0.920452,0.920452 c -2.437284,2.437284 -5.437654,8.170293 -8.38602,16.023732 -1.929174,5.13866 -2.455812,7.397542 -2.452531,10.519523 0.0042,3.98249 1.199488,6.844918 3.933854,9.420524 1.878216,1.769166 4.080804,2.943037 7.216642,3.846117 l 1.351856,0.389317 6.131984,0.08003 6.131985,0.08003 -1.720627,3.204747 -1.720627,3.204748 -23.354977,0.0031 C 23.57836,80.051017 11.658531,80.030877 9.9350889,80.004576 Z M 64.888871,79.0696 c 2.254492,-2.288033 4.707127,-6.785494 7.467909,-13.694099 2.863262,-7.165052 3.704357,-10.782399 3.316294,-14.26258 -0.382359,-3.429024 -1.494155,-5.709139 -3.882933,-7.963269 -1.907171,-1.79967 -4.051119,-2.940387 -7.275809,-3.871195 -1.301836,-0.375775 -1.343791,-0.378356 -7.44382,-0.457938 l -6.134606,-0.08003 1.728996,-3.204747 1.728996,-3.204748 26.69641,-0.01928 c 14.683026,-0.0106 26.568222,0.01204 26.411542,0.05032 -2.34184,0.572116 -5.23105,1.904915 -7.28796,3.361947 -2.635361,1.866793 -5.952063,5.435205 -8.231561,8.856271 -2.224707,3.338837 -4.603429,8.095328 -5.413546,10.824926 -1.8544,6.248193 -4.019152,10.957566 -6.809101,14.813056 -3.06794,4.239652 -6.863559,7.322486 -10.874134,8.832062 -1.107711,0.416941 -3.474132,0.924615 -4.309913,0.924615 h -0.578799 z"
       id="path1" />
  </g>
</svg>
