<?xml version="1.0" encoding="UTF-8" standalone="no"?>
<svg
   version="1.1"
   id="Layer_1"
   x="0px"
   y="0px"
   viewBox="0 0 180 180"
   overflow="visible"
   xml:space="preserve"
   width="180"
   height="180"
   xmlns="http://www.w3.org/2000/svg"
   xmlns:svg="http://www.w3.org/2000/svg"><defs
   id="defs1" />
<path
   fill="#293239"
   d="m 172.61993,46.515 c -0.22,-0.5 -0.45,-0.98 -0.71,-1.41 -0.26,-0.43 -0.57,-0.86 -0.92,-1.28 -1.81,-2.22 -4.76,-4.4 -8.53,-6.47 l -30.33,-16.62 -30.33,-16.64 c -3.770001,-2.07 -7.230001,-3.4 -10.160001,-3.78 -0.56,-0.07 -1.11,-0.11 -1.63,-0.11 -3.24,0 -7.3,1.43 -11.8,3.89 l -30.33,16.63 -30.33,16.62 c -3.77,2.07 -6.72,4.24 -8.5299997,6.47 -0.35,0.43 -0.66,0.86 -0.92,1.28 -0.26,0.43 -0.49,0.91 -0.71,1.41 -1.12,2.61 -1.64,6.11 -1.64,10.24 v 66.5 c 0,4.93 0.73,8.98 2.35,11.65 1.62,2.67 4.9499997,5.29 9.4499997,7.75 l 30.33,16.63 30.33,16.62 c 3.77,2.06 7.23,3.4 10.16,3.78 0.56,0.07 1.11,0.12 1.63,0.12 0.52,0 1.07,-0.04 1.63,-0.12 2.93,-0.38 6.39,-1.71 10.160001,-3.78 l 60.66,-33.25 c 4.49,-2.46 7.83,-5.08 9.45,-7.75 0.26,-0.43 0.49,-0.91 0.71,-1.41 1.12,-2.6 1.64,-6.11 1.64,-10.24 v -66.5 c 0.01,-4.13 -0.51,-7.63 -1.63,-10.23 z m -118.290001,78.02 c 0,1.51 -1.62,2.48 -2.95,1.75 l -10.85,-5.95 c -2.55,-1.4 -4.14,-4.08 -4.14,-6.99 v -32.14 c 0,-1.51 1.62,-2.47 2.95,-1.75 l 12.93,7.08 c 1.28,0.7 2.07,2.04 2.07,3.5 v 34.5 z m 89.290001,-11.19 c 0,2.91 -1.59,5.6 -4.14,7 l -10.85,5.94 c -1.33,0.73 -2.95,-0.23 -2.95,-1.75 v -42.58 c 0,-1.51 -1.62,-2.48 -2.95,-1.75 l -19.6,10.74 c -2.55,1.4 -4.140001,4.08 -4.140001,6.99 v 42.24 c 0,1.46 -0.79,2.8 -2.07,3.5 l -3.08,1.68 c -2.39,1.31 -5.28,1.31 -7.67,0 l -3.06,-1.68 c -1.28,-0.7 -2.07,-2.04 -2.07,-3.5 v -42.23 c 0,-2.91 -1.59,-5.59 -4.14,-6.99 l -40.51,-22.2 v -2.1 c 0,-2.91 1.59,-5.59 4.14,-6.99 l 4.47,-2.46 c 2.39,-1.31 5.28,-1.31 7.66,0 l 33.51,18.36 c 2.39,1.31 5.28,1.31 7.66,0 l 15.480001,-8.49 c 1.38,-0.76 1.38,-2.74 0,-3.5 L 74.529929,44.515 c -1.38,-0.76 -1.38,-2.74 0,-3.5 l 11.64,-6.38 c 2.39,-1.31 5.28,-1.31 7.67,0 l 45.640001,25.01 c 2.56,1.4 4.15,4.08 4.15,7 v 46.7 z"
   id="path1" />
</svg>
