<?xml version="1.0" encoding="UTF-8" standalone="no"?>
<svg
   xml:space="preserve"
   id="Layer_1"
   x="0"
   y="0"
   version="1.1"
   viewBox="42.59 0 511.99999 512"
   width="511.99997"
   height="512"
   xmlns="http://www.w3.org/2000/svg"
   xmlns:svg="http://www.w3.org/2000/svg"><defs
     id="defs4" /><style
     id="style1">.st0{fill:#00ace2}</style><path
     d="m 298.483,267.34054 c -19.226,-0.324 -34.995,14.906 -35.32,34.131 -0.323,19.226 14.906,34.996 34.132,35.32 h 1.296 c 19.226,-0.324 34.455,-16.202 34.131,-35.32 -0.432,-18.793 -15.553,-33.807 -34.24,-34.13 M 85.164,88.690545 121.348,124.87454 C 168.33,77.783545 232.057,51.428545 298.59,51.537545 c 66.534,-0.108 130.26,26.355 177.244,73.339995 l 36.184,-36.183995 c -54.652,-54.654 -130.151,-88.677 -213.428,-88.677 -83.384,0 -158.883,34.023 -213.428,88.676"
     class="st0"
     id="path1" /><path
     d="m 150.401,153.93054 36.184,36.183 c 29.702,-29.703 69.99,-46.444 112.006,-46.444 42.016,0 82.304,16.633 112.006,46.444 l 36.184,-36.183 c -37.912,-37.913 -90.405,-61.673995 -148.191,-61.673995 -57.786,0 -110.278,23.761995 -148.19,61.673995"
     class="st0"
     id="path2" /><path
     d="m 215.207,218.84454 36.184,36.183 c 26.03,-26.03 68.262,-26.03 94.292,0 l 36.184,-36.183 c -22.034,-22.142 -52.061,-34.455 -83.276,-34.347 -32.295,-0.108 -61.782,13.069 -83.384,34.347"
     class="st0"
     id="path3" /><path
     d="m 426.79879,208.90739 c 19.76583,27.0025 30.45882,59.72953 30.45882,93.21263 0,87.59611 -71.2866,158.7747 -158.7747,158.7747 -87.59611,0 -158.7747,-71.2866 -158.7747,-158.7747 0,-34.77922 11.34105,-66.9662 30.45882,-93.21263 l -36.50738,-36.50738 c -29.27071,36.93942 -45.14818,82.62766 -45.04017,129.72001 0,115.5707 94.29273,209.86343 209.86343,209.86343 115.5707,0 209.86343,-94.29273 209.86343,-209.86343 0,-48.92853 -17.06558,-93.9687 -45.04017,-129.72001 z"
     style="fill:#002843;stroke-width:1.0801"
     id="path4" /></svg>
