<?xml version="1.0" encoding="UTF-8" standalone="no"?>
<svg
   viewBox="0 0 90 90"
   version="1.1"
   id="svg2"
   width="90"
   height="90"
   xmlns="http://www.w3.org/2000/svg"
   xmlns:svg="http://www.w3.org/2000/svg">
  <defs
     id="defs2" />
  <path
     d="m 13.3845,18.808509 a 12.54,12.54 0 0 0 -8.855,3.676 l 20.488,22.515 -20.488,22.52 a 12.3,12.3 0 0 0 8.855,3.75 12.28,12.28 0 0 0 9.156,-4.051 l 11.336,-12.461 8.856,-9.758 -8.856,-9.68 -11.336,-12.46 a 12.28,12.28 0 0 0 -9.156,-4.051 z m 63.23,0 a 12.28,12.28 0 0 0 -9.156,4.05 l -11.336,12.463 -8.855,9.68 8.855,9.757 11.336,12.46 a 12.28,12.28 0 0 0 9.156,4.052 12.3,12.3 0 0 0 8.856,-3.75 l -20.488,-22.521 20.488,-22.515 a 12.54,12.54 0 0 0 -8.856,-3.676 z m 0,0"
     style="fill:#e57000"
     id="path1" />
  <path
     d="m 53.0725,33.835509 -8.082,8.906 -8.086,-8.91 -18.7,-20.55 c 2.143008,-2.145201 5.049781,-3.3522199 8.082,-3.3559999 3.36,0 6.164,1.3709999 8.29,3.6999999 l 10.413,11.37 10.344,-11.37 c 2.134452,-2.365033 5.174226,-3.7103869 8.36,-3.6999999 3.148,0 6.027,1.2999999 8.082,3.3549999 z m 0,22.328 -8.082,-8.906 -8.083,8.906 -18.703,20.555 c 2.143606,2.144184 5.050078,3.350718 8.082,3.355 3.36,0 6.168,-1.37 8.29,-3.699 l 10.413,-11.375 10.344,11.375 c 2.135515,2.363564 5.174599,3.708613 8.36,3.7 3.152,0 6.027,-1.305 8.082,-3.356 z"
     id="path2" />
</svg>
