<?xml version="1.0" encoding="UTF-8" standalone="no"?>
<!-- Created with Inkscape (http://www.inkscape.org/) -->

<svg
   version="1.1"
   id="svg1"
   width="400"
   height="400"
   viewBox="0 0 400 400"
   xmlns="http://www.w3.org/2000/svg"
   xmlns:svg="http://www.w3.org/2000/svg">
  <defs
     id="defs1" />
  <g
     id="g1"
     transform="translate(-136.32421,-79.070475)">
    <path
       style="fill:#323232;fill-opacity:1"
       d="m 228.37155,358.88705 c -26.78008,-31.89182 -40.12549,-68.01873 -40.26499,-109 -0.0958,-28.14913 4.69134,-49.84105 16.33098,-74 19.82246,-41.14304 54.38756,-72.04756 97.38152,-87.068459 32.45788,-11.33989 73.73786,-11.60393 107.31934,-0.68645 20.45191,6.64899 44.22384,20.308269 60.66667,34.858879 l 6,5.30953 -20.66667,21.10944 c -61.12323,62.43276 -216.73367,217.81039 -218.13675,217.81039 -0.89785,0 -4.7814,-3.75 -8.6301,-8.33333 z"
       id="path1" />
    <path
       d="m 288.86332,476.26717 c -11.52971,-1.79827 -38.05137,-10.59064 -50.20577,-16.64404 -10.53772,-5.24823 -24.40469,-14.78915 -33.53407,-23.07252 l -7.73984,-7.0226 119.4809,-119.33333 119.4809,-119.33333 4.64152,5.33333 c 21.19273,24.35148 33.00534,47.34079 40.07879,78 3.04149,13.18306 3.5286,18.23152 3.47355,36 -0.0531,17.1456 -0.63556,23.16571 -3.41856,35.33463 -8.421,36.82166 -25.12133,65.35575 -52.92687,90.43056 -23.70981,21.38132 -55.94787,36.45217 -87.30393,40.8134 -13.27333,1.84615 -38.51968,1.60056 -52.02662,-0.5061 z"
       style="fill:#ee6b23;fill-opacity:1"
       id="path1-8" />
  </g>
</svg>
