<?xml version="1.0" encoding="UTF-8" standalone="no"?>
<svg
   role="img"
   viewBox="0 0 24 24"
   id="Scipy--Streamline-Simple-Icons"
   height="24"
   width="24"
   version="1.1"
   xmlns="http://www.w3.org/2000/svg"
   xmlns:svg="http://www.w3.org/2000/svg"
   xmlns:rdf="http://www.w3.org/1999/02/22-rdf-syntax-ns#"
   xmlns:cc="http://creativecommons.org/ns#"
   xmlns:dc="http://purl.org/dc/elements/1.1/">
  <defs
     id="defs1" />
  <desc
     id="desc1">
    Scipy Streamline Icon: https://streamlinehq.com
  </desc>
  <title
     id="title1">SciPy</title>
  <ellipse
     style="opacity:1;fill:#ffffff;stroke:#ffffff;stroke-width:0.361543;stroke-dasharray:none"
     id="path3"
     cx="11.460937"
     cy="12.009709"
     rx="11.285394"
     ry="10.974257" />
  <path
     d="m 15.697,13.496 c -0.784,-1.072 -1.982,-1.519 -3.694,-1.88 L 10.411,11.241 9.21,10.726 C 8.579,10.28 8.04,9.092 8.193,8.045 a 3,3 0 0 1 3.386,-2.526 2.962,2.962 0 0 1 1.962,1.155 L 15.35,9.05 c 1.033,1.33 2.195,1.727 3.459,1.098 l 0.637,-0.27 a 0.22,0.22 0 0 1 0.278,0.087 l 0.127,0.19 a 0.311,0.311 0 0 0 0.156,0.131 0.326,0.326 0 0 0 0.33,-0.058 l 1.467,-1.384 c 0.257,-0.22 0.182,-0.422 0.182,-0.422 L 21.632,7.616 c 0,0 -0.097,-0.193 -0.431,-0.149 l -1.968,0.181 a 0.327,0.327 0 0 0 -0.27,0.411 l 0.071,0.227 c 0.014,0.047 0.014,0.1 -0.005,0.148 A 0.219,0.219 0 0 1 18.905,8.559 L 18.349,8.794 C 17.767,9.135 17.105,8.917 16.663,8.377 L 16.158,7.707 14.72,5.797 A 4.421,4.421 0 0 0 11.791,4.077 C 9.355,3.733 7.095,5.42 6.741,7.84 c -0.179,1.22 0.187,2.375 0.855,3.302 0.485,0.674 1.373,1.06 1.854,1.18 l 1.262,0.36 1.208,0.277 c 0.166,0.04 0.634,0.155 0.91,0.255 0.256,0.092 0.845,0.31 1.324,0.701 0.572,0.582 0.875,1.413 0.746,2.284 a 2.744,2.744 0 0 1 -4.897,1.255 L 8.277,15.162 a 2.294,2.294 0 0 0 -1.514,-0.89 2.31,2.31 0 0 0 -1.708,0.439 l -3.632,2.71 A 11.002,11.002 0 0 1 0,12 C 0,5.798 5.133,0.768 11.465,0.768 c 4.715,0 8.761,2.788 10.523,6.77 L 22.569,7.268 22.962,6.196 23.373,6.34 23.02,7.3 24,7.637 23.852,8.039 22.757,7.657 22.154,7.934 c 0.5,1.262 0.778,2.632 0.778,4.066 0,6.203 -5.135,11.232 -11.467,11.232 a 11.526,11.526 0 0 1 -9.26,-4.61 l 3.721,-2.788 a 0.855,0.855 0 0 1 1.163,0.19 l 1.826,2.455 a 4.186,4.186 0 0 0 2.673,1.502 c 2.302,0.322 4.439,-1.273 4.773,-3.563 a 4.14,4.14 0 0 0 -0.664,-2.922"
     fill="#000000"
     stroke-width="1"
     id="path1"
     style="fill:#0054a6;fill-opacity:1" />
  <metadata
     id="metadata1">
    <rdf:RDF>
      <cc:Work
         rdf:about="">
        <dc:title>SciPy</dc:title>
      </cc:Work>
    </rdf:RDF>
  </metadata>
</svg>
