<?xml version="1.0" encoding="UTF-8" standalone="no"?>
<svg
   xml:space="preserve"
   id="Synology_x5F_logo"
   x="0"
   y="0"
   version="1.1"
   viewBox="0 0 512 512.00001"
   width="512"
   height="512"
   sodipodi:docname="synology-logo-512px.svg"
   inkscape:version="1.4.3 (0d15f75, 2025-12-25)"
   inkscape:export-filename="synology-logo-512px.svg"
   inkscape:export-xdpi="96"
   inkscape:export-ydpi="96"
   xmlns:inkscape="http://www.inkscape.org/namespaces/inkscape"
   xmlns:sodipodi="http://sodipodi.sourceforge.net/DTD/sodipodi-0.dtd"
   xmlns="http://www.w3.org/2000/svg"
   xmlns:svg="http://www.w3.org/2000/svg"><sodipodi:namedview
     id="namedview1"
     pagecolor="#ffffff"
     bordercolor="#000000"
     borderopacity="0.25"
     inkscape:showpageshadow="2"
     inkscape:pageopacity="0.0"
     inkscape:pagecheckerboard="true"
     inkscape:deskcolor="#d1d1d1"
     inkscape:zoom="2.1912945"
     inkscape:cx="211.74698"
     inkscape:cy="187.33219"
     inkscape:window-width="2560"
     inkscape:window-height="1369"
     inkscape:window-x="-8"
     inkscape:window-y="-8"
     inkscape:window-maximized="1"
     inkscape:current-layer="Synology_x5F_logo" /><defs
     id="defs5" /><style
     id="style1">.st1{fill:#b5b6b6}</style><path
     d="m 25.6,260.45 16.5,-1.5 c 1,5.5 3,9.6 6.1,12.2 3.1,2.6 7.2,3.9 12.4,3.9 5.5,0 9.6,-1.2 12.4,-3.5 2.8,-2.4 4.2,-5 4.2,-8.1 0,-2 -0.6,-3.7 -1.7,-5.1 -1.2,-1.4 -3.2,-2.6 -6.1,-3.6 -2,-0.8 -6.5,-2 -13.6,-3.8 -9.1,-2.2 -15.5,-5.1 -19.2,-8.4 q -7.8,-7.05 -7.8,-17.1 c 0,-4.3 1.2,-8.4 3.7,-12.1 2.4,-3.8 6,-6.6 10.6,-8.6 4.6,-1.9 10.1,-2.9 16.6,-2.9 10.6,0 18.5,2.3 23.9,7 5.4,4.7 8.1,11 8.4,18.8 l -17.1,0.6 c -0.8,-4.3 -2.3,-7.4 -4.7,-9.3 -2.4,-1.9 -6,-2.9 -10.7,-2.9 -4.9,0 -8.8,1 -11.6,3.1 -1.8,1.3 -2.7,3 -2.7,5.2 0,2 0.8,3.7 2.5,5.1 2.1,1.9 7.4,3.7 15.6,5.7 8.3,2 14.4,4 18.3,6.1 q 6,3.15 9.3,8.7 c 2.2,3.6 3.4,8.2 3.4,13.5 0,4.8 -1.4,9.4 -4,13.6 -2.7,4.2 -6.5,7.4 -11.4,9.5 -4.9,2 -11,3.1 -18.4,3.1 q -16.05,0 -24.6,-7.5 c -5.8,-5 -9.2,-12.2 -10.3,-21.7"
     class="st1"
     id="path2"
     style="fill:#1a1a1a" /><path
     d="m 92.1,226.65 h 17.1 l 14.6,43.6 14.3,-43.6 h 16.7 l -21.5,59 -3.9,10.8 c -1.4,3.6 -2.8,6.3 -4,8.2 -1.3,1.9 -2.8,3.5 -4.4,4.6 -1.7,1.1 -3.8,2.1 -6.1,2.7 -2.5,0.7 -5.2,1 -8.3,1 -3.1,0 -6.2,-0.4 -9.2,-1 l -1.3,-12.8 c 2.5,0.5 4.8,0.8 6.8,0.8 3.7,0 6.5,-1.1 8.3,-3.3 1.8,-2.3 3.2,-5.1 4.1,-8.5 z m 119,61.4 H 195 v -31.3 c 0,-6.6 -0.3,-10.8 -1,-12.8 -0.7,-1.9 -1.8,-3.5 -3.4,-4.5 -1.6,-1.1 -3.5,-1.6 -5.7,-1.6 -2.8,0 -5.4,0.8 -7.6,2.3 -2.3,1.5 -3.8,3.6 -4.6,6.1 -0.8,2.6 -1.2,7.2 -1.2,14.1 v 27.7 h -16.1 v -61.4 h 14.9 v 9 c 5.4,-6.8 12.1,-10.2 20.2,-10.2 3.6,0 6.9,0.7 9.9,1.9 3,1.3 5.2,2.9 6.7,5 1.5,2 2.6,4.3 3.2,6.8 0.6,2.5 0.9,6.2 0.9,10.9 v 38 z"
     class="st1"
     id="path3"
     style="fill:#1a1a1a" /><path
     d="m 211.2,256.75 c 0,-5.4 1.3,-10.6 4,-15.7 2.7,-5 6.4,-8.9 11.3,-11.6 4.9,-2.7 10.3,-4 16.3,-4 q 13.95,0 22.8,9 c 5.9,6 8.9,13.7 8.9,22.9 q 0,13.95 -9,23.1 c -6,6.1 -13.5,9.2 -22.6,9.2 -5.6,0 -11,-1.3 -16.1,-3.8 -5.1,-2.5 -9,-6.3 -11.6,-11.2 -2.7,-4.9 -4,-10.9 -4,-17.9 m 16.5,0.8 c 0,6.1 1.4,10.8 4.4,14 2.9,3.3 6.5,4.9 10.7,4.9 4.3,0 7.8,-1.6 10.7,-4.9 2.9,-3.2 4.3,-7.9 4.3,-14.1 0,-6.1 -1.4,-10.7 -4.3,-13.9 -2.9,-3.2 -6.5,-4.9 -10.7,-4.9 -4.3,0 -7.8,1.7 -10.7,4.9 -2.9,3.2 -4.4,7.9 -4.4,14"
     class="st1"
     id="path4"
     style="fill:#1a1a1a" /><path
     d="m 294.4,195.15 v 79.3 c 0,3.8 0.3,6.3 0.8,7.5 0.6,1.3 1.4,2.2 2.5,2.8 1.1,0.6 3.3,1 6.3,1 v 2.4 h -29.3 v -2.4 q 4.05,0 5.7,-0.9 c 1,-0.6 1.8,-1.5 2.3,-2.8 0.6,-1.3 0.8,-3.8 0.8,-7.5 v -54.1 c 0,-6.8 -0.1,-11 -0.4,-12.5 -0.3,-1.6 -0.8,-2.6 -1.4,-3.2 -0.7,-0.6 -1.5,-0.9 -2.5,-0.9 -1.1,0 -2.5,0.4 -4.2,1.1 l -1.1,-2.3 17.6,-7.3 h 2.9 z m 38.7,31.3 c 9.1,0 16.4,3.4 21.9,10.3 4.7,5.9 7,12.6 7,20.2 0,5.4 -1.3,10.8 -3.8,16.2 -2.6,5.5 -6.1,9.6 -10.6,12.4 -4.5,2.8 -9.5,4.2 -15.1,4.2 -9.1,0 -16.2,-3.6 -21.5,-10.8 -4.5,-6 -6.7,-12.8 -6.7,-20.4 0,-5.5 1.4,-10.9 4.1,-16.3 2.8,-5.5 6.3,-9.4 10.8,-12.1 4.2,-2.4 8.9,-3.7 13.9,-3.7 m -2,4.4 c -2.3,0 -4.6,0.6 -7,2 -2.3,1.4 -4.2,3.7 -5.7,7.1 -1.4,3.5 -2.2,7.9 -2.2,13.2 0,8.7 1.8,16.1 5.2,22.5 3.5,6.2 8,9.4 13.7,9.4 4.3,0 7.7,-1.8 10.4,-5.2 2.8,-3.5 4.1,-9.4 4.1,-17.9 0,-10.6 -2.3,-18.9 -6.9,-25 -2.9,-4.1 -6.8,-6.1 -11.6,-6.1 m 44,35.3 c -3.6,-1.9 -6.4,-4.3 -8.4,-7.5 -1.9,-3.2 -2.9,-6.7 -2.9,-10.6 0,-5.9 2.2,-11 6.6,-15.2 4.5,-4.3 10.2,-6.4 17.1,-6.4 5.7,0 10.6,1.3 14.8,4.1 h 12.6 c 1.9,0 3,0.1 3.3,0.2 q 0.45,0.15 0.6,0.6 c 0.2,0.4 0.4,1.1 0.4,2.1 0,1.1 -0.1,2 -0.3,2.4 -0.1,0.2 -0.4,0.4 -0.7,0.5 -0.3,0.1 -1.4,0.2 -3.3,0.2 h -7.8 c 2.5,3.1 3.7,7.2 3.7,12.1 0,5.6 -2.2,10.3 -6.4,14.3 q -6.45,6 -17.1,6 c -3,0 -6,-0.4 -9.1,-1.4 -1.8,1.7 -3.1,3.1 -3.7,4.4 -0.7,1.3 -1,2.3 -1,3.1 0,0.8 0.4,1.5 1.1,2.2 q 1.05,1.05 4.2,1.5 c 1.2,0.2 4.3,0.4 9.1,0.5 8.9,0.3 14.7,0.6 17.4,1.1 4,0.6 7.3,2.1 9.7,4.5 2.4,2.4 3.6,5.4 3.6,8.9 0,4.8 -2.3,9.5 -6.9,13.7 -6.7,6.3 -15.6,9.4 -26.4,9.4 -8.4,0 -15.4,-1.8 -21.2,-5.6 -3.3,-2.2 -4.9,-4.4 -4.9,-6.8 0,-1 0.2,-2.1 0.7,-3.1 0.7,-1.6 2.2,-3.8 4.5,-6.7 0.3,-0.4 2.5,-2.7 6.5,-7 -2.2,-1.4 -3.8,-2.6 -4.7,-3.7 -0.9,-1.1 -1.4,-2.3 -1.4,-3.6 q 0,-2.25 1.8,-5.4 c 1.2,-2.2 4,-5.1 8.5,-8.8 m -0.6,21.9 c -2,2.2 -3.5,4.2 -4.5,6.2 -1,1.8 -1.5,3.6 -1.5,5.2 0,2.1 1.2,3.9 3.8,5.5 4.4,2.7 10.6,4 18.8,4 7.8,0 13.5,-1.4 17.3,-4.1 3.7,-2.7 5.6,-5.6 5.6,-8.7 q 0,-3.3 -3.3,-4.8 c -2.3,-1 -6.7,-1.5 -13.5,-1.7 -9.9,-0.3 -17.4,-0.9 -22.7,-1.6 m 11.9,-58.3 c -3.2,0 -5.9,1.3 -8,3.9 -2.2,2.5 -3.2,6.4 -3.2,11.7 0,6.8 1.5,12.1 4.4,15.9 2.3,2.8 5.1,4.3 8.5,4.3 3.3,0 6,-1.3 8.1,-3.7 2.1,-2.5 3.2,-6.3 3.2,-11.5 0,-6.9 -1.5,-12.3 -4.4,-16.1 -2.3,-3 -5.1,-4.5 -8.6,-4.5 m 34.7,-1.5 h 28 v 2.4 h -1.4 c -2,0 -3.4,0.5 -4.4,1.3 -1,0.9 -1.4,1.9 -1.4,3.2 0,1.7 0.7,4.1 2.2,7.1 l 14.6,30.3 13.3,-33.1 c 0.7,-1.8 1.1,-3.6 1.1,-5.4 0,-0.8 -0.2,-1.3 -0.5,-1.7 -0.4,-0.5 -0.9,-0.9 -1.6,-1.1 -0.7,-0.3 -2,-0.5 -3.9,-0.5 v -2.4 h 19.3 v 2.4 c -1.6,0.2 -2.9,0.5 -3.7,1.1 -0.9,0.5 -1.8,1.5 -2.9,2.9 -0.4,0.6 -1.2,2.3 -2.2,5 l -24.2,59.6 c -2.4,5.8 -5.5,10.2 -9.3,13.1 -3.8,3 -7.5,4.4 -11.1,4.4 -2.6,0 -4.7,-0.7 -6.4,-2.2 -1.7,-1.5 -2.5,-3.1 -2.5,-5.1 0,-1.8 0.6,-3.2 1.8,-4.4 1.2,-1.2 2.9,-1.7 5,-1.7 1.4,0 3.4,0.5 5.9,1.4 1.7,0.6 2.9,1 3.3,1 1.3,0 2.7,-0.7 4.3,-2 1.5,-1.3 3.1,-3.9 4.7,-7.8 l 4.2,-10.4 -21.5,-45 c -0.7,-1.4 -1.7,-3 -3.1,-5 -1.1,-1.5 -2,-2.5 -2.7,-3.1 q -1.5,-1.05 -4.8,-1.8 v -2.5 z"
     id="path5"
     style="fill:#4d4d4d" /></svg>
