<?xml version="1.0" encoding="UTF-8" standalone="no"?>
<svg
   xml:space="preserve"
   viewBox="0 0 512 512"
   version="1.1"
   id="svg1"
   width="512"
   height="512"
   sodipodi:docname="ubiquiti-unifi-512px.svg"
   inkscape:version="1.4.3 (0d15f75, 2025-12-25)"
   xmlns:inkscape="http://www.inkscape.org/namespaces/inkscape"
   xmlns:sodipodi="http://sodipodi.sourceforge.net/DTD/sodipodi-0.dtd"
   xmlns="http://www.w3.org/2000/svg"
   xmlns:svg="http://www.w3.org/2000/svg"><sodipodi:namedview
     id="namedview1"
     pagecolor="#ffffff"
     bordercolor="#000000"
     borderopacity="0.25"
     inkscape:showpageshadow="2"
     inkscape:pageopacity="0.0"
     inkscape:pagecheckerboard="true"
     inkscape:deskcolor="#d1d1d1"
     inkscape:zoom="1.1397548"
     inkscape:cx="1.7547635"
     inkscape:cy="264.53059"
     inkscape:window-width="2560"
     inkscape:window-height="1369"
     inkscape:window-x="-8"
     inkscape:window-y="-8"
     inkscape:window-maximized="1"
     inkscape:current-layer="svg1" /><defs
     id="defs1" /><path
     d="m 494.17652,0.02387817 h -31.8 V 31.823878 h 31.8 z m -111.1,222.40000183 v -63.6 h 63.5 v 63.5 h 63.5 c 1.1,58.9 -3.4,110.2 -33.3,161.6 -86.6,152.4 -300.5,172.9 -414.000001,39.2 -26.5,-30.7 -45.6,-68.1 -54.5000004,-108.1 -4.5,-21.7 -6.5,-49.2 -6.5,-72.5 V 4.0238782 H 128.77652 l 0.2,242.0000018 c 0.6,31.3 6.3,63.5 25,88 53.9,73 167.9,66.3 212.1,-13.1 15.9,-26.6 17.3,-68.7 17,-98.5 m 15.8,-174.800002 h 47.6 v 47.6 h 63.5 v 63.500002 h -63.5 V 95.323878 h -47.6 z"
     style="fill:#005ed9"
     id="path1" /></svg>
