<?xml version="1.0" encoding="UTF-8" standalone="no"?>
<svg
   id="Layer_2"
   data-name="Layer 2"
   viewBox="0 1.86 78.479718 48.063883"
   version="1.1"
   width="78.479721"
   height="48.063885"
   sodipodi:docname="victron-energy-48x78px.svg"
   inkscape:version="1.4.3 (0d15f75, 2025-12-25)"
   xmlns:inkscape="http://www.inkscape.org/namespaces/inkscape"
   xmlns:sodipodi="http://sodipodi.sourceforge.net/DTD/sodipodi-0.dtd"
   xmlns="http://www.w3.org/2000/svg"
   xmlns:svg="http://www.w3.org/2000/svg">
  <sodipodi:namedview
     id="namedview1"
     pagecolor="#ffffff"
     bordercolor="#000000"
     borderopacity="0.25"
     inkscape:showpageshadow="2"
     inkscape:pageopacity="0.0"
     inkscape:pagecheckerboard="false"
     inkscape:deskcolor="#d1d1d1"
     inkscape:zoom="8.8759304"
     inkscape:cx="45.967012"
     inkscape:cy="21.349874"
     inkscape:window-width="2560"
     inkscape:window-height="1369"
     inkscape:window-x="-8"
     inkscape:window-y="-8"
     inkscape:window-maximized="1"
     inkscape:current-layer="Layer_2" />
  <defs
     id="defs1">
    <style
       id="style1">
      .cls-1 {
        fill: #0066b3;
      }

      .cls-2 {
        fill: #231f20;
      }
    </style>
  </defs>
  <g
     id="Layer_1-2"
     data-name="Layer 1"
     transform="translate(0.00486213,0.00235529)">
    <g
       id="g8">
      <path
         class="cls-1"
         d="m 16.82,2.51 c 0,0 -4.89,-1.92 -9.84,2.06 0,0 -5.89,3.95 -6.97,20.6 0,0 -0.33,2.77 2.12,3.18 0,0 2.46,0.48 2.79,-1.6 0.32,-2.08 0.26,-12.58 4.92,-17.97 0,0 0.45,-0.68 1.69,-1.21 1.03,-0.64 1.85,-1.8 2.46,-2.72 0,0 0.91,-1.21 2.84,-2.33"
         id="path1" />
      <path
         class="cls-1"
         d="m 25.65,2.12 c 0,0 -4.35,-1.38 -9.03,2.19 0,0 -5.56,3.4 -6.85,16.89 0,0 -0.48,3.33 -0.22,5.02 0,0 0.21,1.97 2.25,2.15 0,0 2.45,0.19 2.6,-2.11 0.15,-2.29 0.21,-3.23 0.21,-3.23 0,0 0.39,-8.97 4.03,-13.52 l 0.88,0.66 c 0,0 1.24,-4.71 6.13,-8.06 v 0 z"
         id="path2" />
      <path
         class="cls-1"
         d="m 34.47,2.12 c 0,0 -5.82,-1.36 -10.03,3.22 0,0 -4.18,3.73 -5.41,12.99 0,0 -0.52,4.98 -0.61,7.4 0,0 -0.04,2.35 2.21,2.65 0,0 2.33,0.14 2.48,-2.32 0,0 0.15,-11.34 4.35,-16.53 l 1.04,0.65 c 0,0 1.82,-5.24 5.97,-8.05 v 0 z"
         id="path3" />
      <path
         class="cls-1"
         d="m 41.17,2 c 0,0 -5.86,-0.24 -9.3,5.67 0,0 -3.97,5.79 -3.96,17.65 0,0 -0.24,2.81 1.96,3.07 0,0 2.61,0.16 2.61,-2.82 0,0 0.12,-11.7 4.58,-16.43 0,0 3.95,4.74 4.28,15.91 0,0 0.14,7.65 1.56,11.87 0,0 1.29,-4.73 1.55,-11.29 0,0 -0.11,-1.2 0.93,-2.04 0,0 0.68,-0.34 0.55,-1.53 0,0 -0.96,-9.74 -4.2,-15.26 0,0 6.88,-0.45 8.24,13.31 0,0 0.01,2.01 1.13,3.26 0,0 0.82,0.58 0.9,1.99 0,0 0.2,1.95 -0.38,8.24 0,0 -0.14,1.38 0.47,3.34 0,0 1.7,-4.7 1.25,-9.31 0,0 -0.22,-3.74 1.64,-5 0,0 -0.16,-10.44 -4.31,-16.15 0,0 -3.29,-4.74 -9.5,-4.48 z"
         id="path4" />
      <path
         class="cls-1"
         d="m 61.66,49.27 c 0,0 4.89,1.92 9.84,-2.06 0,0 5.88,-3.95 6.96,-20.6 0,0 0.33,-2.77 -2.12,-3.18 0,0 -2.46,-0.48 -2.79,1.6 -0.32,2.08 -0.26,12.58 -4.92,17.96 0,0 -0.45,0.68 -1.69,1.21 -1.03,0.64 -1.85,1.8 -2.46,2.72 0,0 -0.91,1.21 -2.84,2.33"
         id="path5" />
      <path
         class="cls-1"
         d="m 52.83,49.66 c 0,0 4.35,1.38 9.03,-2.2 0,0 5.56,-3.4 6.85,-16.89 0,0 0.48,-3.33 0.22,-5.02 0,0 -0.21,-1.97 -2.25,-2.15 0,0 -2.45,-0.19 -2.6,2.1 -0.15,2.29 -0.21,3.23 -0.21,3.23 0,0 -0.39,8.97 -4.03,13.52 l -0.88,-0.66 c 0,0 -1.24,4.71 -6.13,8.06 v 0 z"
         id="path6" />
      <path
         class="cls-1"
         d="m 44,49.66 c 0,0 5.82,1.36 10.03,-3.22 0,0 4.18,-3.73 5.41,-12.99 0,0 0.52,-4.98 0.61,-7.4 0,0 0.04,-2.35 -2.21,-2.65 0,0 -2.33,-0.14 -2.48,2.32 0,0 -0.15,11.34 -4.35,16.53 L 49.97,41.6 c 0,0 -1.82,5.24 -5.97,8.05 v 0 z"
         id="path7" />
      <path
         class="cls-1"
         d="m 37.31,49.79 c 0,0 5.86,0.24 9.3,-5.67 0,0 3.97,-5.79 3.96,-17.65 0,0 0.24,-2.81 -1.96,-3.07 0,0 -2.61,-0.16 -2.61,2.82 0,0 -0.12,11.7 -4.58,16.43 0,0 -3.95,-4.74 -4.28,-15.91 0,0 -0.14,-7.65 -1.56,-11.87 0,0 -1.29,4.73 -1.55,11.29 0,0 0.11,1.2 -0.93,2.04 0,0 -0.69,0.34 -0.55,1.53 0,0 0.96,9.74 4.2,15.26 0,0 -6.88,0.45 -8.24,-13.31 0,0 -0.01,-2.01 -1.13,-3.26 0,0 -0.82,-0.58 -0.9,-1.99 0,0 -0.2,-1.95 0.38,-8.24 0,0 0.14,-1.38 -0.47,-3.34 0,0 -1.7,4.7 -1.25,9.31 0,0 0.22,3.74 -1.64,5 0,0 0.16,10.44 4.31,16.16 0,0 3.29,4.74 9.5,4.48 v 0 z"
         id="path8" />
    </g>
  </g>
</svg>
